# Blender 4.4.1
# www.blender.org
mtllib Office_Files_B.mtl
o Office_Files_B
v 0.121873 0.025791 -0.176099
v 0.121873 0.025791 0.189015
v -0.121873 0.025791 0.189015
v -0.121873 0.025791 -0.176099
v -0.121873 0.000000 0.189015
v 0.121873 0.000000 0.189015
v -0.121873 0.000000 -0.176099
v 0.121873 0.000000 -0.176099
v 0.113927 0.053491 -0.181160
v 0.129595 0.053491 0.183618
v -0.113927 0.053491 0.194077
v -0.129595 0.053491 -0.170701
v -0.113927 0.024984 0.194077
v 0.129595 0.024984 0.183618
v -0.129595 0.024984 -0.170701
v 0.113927 0.024984 -0.181160
v 0.109910 0.055617 -0.229312
v 0.133334 0.066956 0.135051
v -0.109910 0.066956 0.150688
v -0.133334 0.055617 -0.213674
v -0.109910 0.053034 0.150688
v 0.133334 0.053034 0.135051
v -0.133334 0.041694 -0.213674
v 0.109910 0.041694 -0.229312
v 0.121961 0.113012 -0.216371
v 0.121786 0.113012 0.148743
v -0.121961 0.113012 0.148626
v -0.121786 0.113012 -0.216488
v -0.121961 0.080094 0.148626
v 0.121786 0.080094 0.148743
v -0.121786 0.080094 -0.216488
v 0.121961 0.080094 -0.216371
v 0.114934 0.079733 -0.207248
v 0.128641 0.073214 0.157609
v -0.114934 0.073214 0.166760
v -0.128641 0.079733 -0.198097
v -0.114934 0.060166 0.166760
v 0.128641 0.060166 0.157609
v -0.128641 0.066685 -0.198097
v 0.114934 0.066685 -0.207248
v 0.127062 0.079733 0.115586
v -0.116513 0.079733 0.124736
v -0.116513 0.066685 0.124736
v 0.127062 0.066685 0.115586
v 0.111966 0.066956 -0.197335
v -0.131278 0.066956 -0.181698
v -0.131278 0.053034 -0.181698
v 0.111966 0.053034 -0.197335
v 0.121634 0.103939 -0.245093
v 0.113329 0.126261 0.115377
v -0.130355 0.126261 0.109832
v -0.122049 0.103939 -0.250637
v -0.130355 0.112339 0.109832
v 0.113329 0.112339 0.115377
v -0.122049 0.090017 -0.250637
v 0.121634 0.090017 -0.245093
v 0.120905 0.126261 -0.217609
v -0.122778 0.126261 -0.223153
v -0.122778 0.112339 -0.223153
v 0.120905 0.112339 -0.217609
v 0.121270 0.120591 -0.233626
v 0.121270 0.106669 -0.233626
v -0.122414 0.120591 -0.239170
v -0.122414 0.106669 -0.239170
vn -0.0000 -0.0000 -1.0000
vn -0.0000 1.0000 -0.0000
vn 1.0000 -0.0000 -0.0000
vn -1.0000 -0.0000 -0.0000
vn -0.0000 -0.0000 1.0000
vn -0.0000 -1.0000 -0.0000
vn -0.0429 -0.0000 -0.9991
vn 0.9991 -0.0000 -0.0429
vn -0.9991 -0.0000 0.0429
vn 0.0429 -0.0000 0.9991
vn -0.0642 -0.0000 -0.9979
vn -0.0214 0.9427 -0.3329
vn 0.9979 -0.0000 -0.0642
vn -0.9979 -0.0000 0.0642
vn 0.0642 -0.0000 0.9979
vn 0.0214 -0.9427 0.3329
vn 0.0005 -0.0000 -1.0000
vn 1.0000 -0.0000 0.0005
vn -1.0000 -0.0000 -0.0005
vn -0.0005 -0.0000 1.0000
vn -0.0375 -0.0000 -0.9993
vn 0.9993 -0.0000 -0.0375
vn -0.9993 -0.0000 0.0375
vn 0.0375 -0.0000 0.9993
vn -0.0058 -0.9882 -0.1531
vn 0.0058 0.9882 0.1531
vn 0.0227 -0.0000 -0.9997
vn 0.0187 0.5673 -0.8233
vn 0.9997 -0.0000 0.0227
vn -0.9995 -0.0000 -0.0318
vn -0.0227 -0.0000 0.9997
vn -0.0187 -0.5673 0.8233
vn -0.9997 -0.0000 -0.0227
vn 0.9995 -0.0000 0.0318
vn -0.0076 -0.9427 0.3335
vn 0.0076 0.9427 -0.3335
vt 0.689225 0.810481
vt 0.723299 0.810481
vt 0.689225 0.776407
vt 0.723299 0.776407
vt 0.689225 0.807491
vt 0.723299 0.807491
vt 0.689225 0.780331
vt 0.723299 0.780331
vt 0.689225 0.808986
vt 0.723299 0.808986
s 0
usemtl Palette
f 7/1/1 4/1/1 1/2/1 8/2/1
f 3/3/2 2/4/2 1/2/2 4/1/2
f 8/2/3 1/2/3 2/4/3 6/4/3
f 5/3/4 3/3/4 4/1/4 7/1/4
f 6/4/5 2/4/5 3/3/5 5/3/5
f 5/3/6 7/1/6 8/2/6 6/4/6
f 15/1/7 12/1/7 9/2/7 16/2/7
f 11/3/2 10/4/2 9/2/2 12/1/2
f 16/2/8 9/2/8 10/4/8 14/4/8
f 13/3/9 11/3/9 12/1/9 15/1/9
f 14/4/10 10/4/10 11/3/10 13/3/10
f 13/3/6 15/1/6 16/2/6 14/4/6
f 23/1/11 20/1/11 17/2/11 24/2/11
f 46/5/12 45/6/12 17/2/12 20/1/12
f 48/6/13 45/6/13 18/4/13 22/4/13
f 47/5/14 46/5/14 20/1/14 23/1/14
f 22/4/15 18/4/15 19/3/15 21/3/15
f 47/5/16 23/1/16 24/2/16 48/6/16
f 31/1/17 28/1/17 25/2/17 32/2/17
f 27/3/2 26/4/2 25/2/2 28/1/2
f 32/2/18 25/2/18 26/4/18 30/4/18
f 29/3/19 27/3/19 28/1/19 31/1/19
f 30/4/20 26/4/20 27/3/20 29/3/20
f 29/3/6 31/1/6 32/2/6 30/4/6
f 39/1/21 36/1/21 33/2/21 40/2/21
f 42/7/2 41/8/2 33/2/2 36/1/2
f 44/8/22 41/8/22 34/4/22 38/4/22
f 43/7/23 42/7/23 36/1/23 39/1/23
f 38/4/24 34/4/24 35/3/24 37/3/24
f 43/7/6 39/1/6 40/2/6 44/8/6
f 37/3/25 43/7/25 44/8/25 38/4/25
f 37/3/23 35/3/23 42/7/23 43/7/23
f 40/2/22 33/2/22 41/8/22 44/8/22
f 35/3/26 34/4/26 41/8/26 42/7/26
f 21/3/6 47/5/6 48/6/6 22/4/6
f 21/3/14 19/3/14 46/5/14 47/5/14
f 24/2/13 17/2/13 45/6/13 48/6/13
f 19/3/2 18/4/2 45/6/2 46/5/2
f 55/1/27 52/1/27 49/2/27 56/2/27
f 63/9/28 61/10/28 49/2/28 52/1/28
f 60/6/29 57/6/29 50/4/29 54/4/29
f 64/9/30 63/9/30 52/1/30 55/1/30
f 54/4/31 50/4/31 51/3/31 53/3/31
f 64/9/32 55/1/32 56/2/32 62/10/32
f 53/3/6 59/5/6 60/6/6 54/4/6
f 53/3/33 51/3/33 58/5/33 59/5/33
f 62/10/29 61/10/29 57/6/29 60/6/29
f 51/3/2 50/4/2 57/6/2 58/5/2
f 56/2/34 49/2/34 61/10/34 62/10/34
f 59/5/35 64/9/35 62/10/35 60/6/35
f 59/5/33 58/5/33 63/9/33 64/9/33
f 58/5/36 57/6/36 61/10/36 63/9/36
