# Blender 4.4.1
# www.blender.org
mtllib RFan_B.mtl
o RFan_B
v 0.076570 -0.077379 0.206869
v 0.076570 -0.087168 0.206869
v 0.320336 -0.087169 0.062558
v 0.320336 -0.077442 0.062558
v 0.005711 -0.087168 0.206869
v 0.005711 -0.077379 0.206869
v 0.107281 -0.071668 0.200618
v 0.107281 -0.092880 0.200618
v 0.317169 -0.071730 0.093269
v 0.317169 -0.092880 0.093269
v 0.005711 -0.087168 0.062559
v 0.320336 -0.087169 0.005711
v 0.320336 -0.077442 0.005711
v 0.005711 -0.077379 0.062559
v 0.076570 -0.087169 0.005711
v 0.076570 -0.077442 0.005711
v 0.076570 -0.077379 0.062559
v 0.076570 -0.087168 0.062559
v 0.005711 -0.077442 0.005711
v 0.005711 -0.087169 0.005711
v 0.836778 -0.071730 0.093269
v 0.880024 -0.071730 0.050023
v 0.867358 -0.071730 0.080603
v 0.880024 -0.092880 0.050023
v 0.836778 -0.092880 0.093269
v 0.867358 -0.092880 0.080603
v 0.107281 -0.092880 0.819560
v 0.064035 -0.092880 0.862806
v 0.094614 -0.092880 0.850140
v 0.064035 -0.071773 0.862806
v 0.107281 -0.071766 0.819560
v 0.094614 -0.071771 0.850140
v -0.076570 -0.077379 0.206869
v -0.076570 -0.087168 0.206869
v -0.320336 -0.087169 0.062558
v -0.320336 -0.077442 0.062558
v -0.005711 -0.087168 0.206869
v -0.005711 -0.077379 0.206869
v -0.107281 -0.071668 0.200618
v -0.107281 -0.092880 0.200618
v -0.317169 -0.071730 0.093269
v -0.317169 -0.092880 0.093269
v -0.005711 -0.087168 0.062559
v -0.320336 -0.087169 0.005711
v -0.320336 -0.077442 0.005711
v -0.005711 -0.077379 0.062559
v -0.076570 -0.087169 0.005711
v -0.076570 -0.077442 0.005711
v -0.076570 -0.077379 0.062559
v -0.076570 -0.087168 0.062559
v -0.005711 -0.077442 0.005711
v -0.005711 -0.087169 0.005711
v -0.836778 -0.071730 0.093269
v -0.880024 -0.071730 0.050023
v -0.867358 -0.071730 0.080603
v -0.880024 -0.092880 0.050023
v -0.836778 -0.092880 0.093269
v -0.867358 -0.092880 0.080603
v -0.107281 -0.092880 0.819560
v -0.064035 -0.092880 0.862806
v -0.094614 -0.092880 0.850140
v -0.064035 -0.071773 0.862806
v -0.107281 -0.071766 0.819560
v -0.094614 -0.071771 0.850140
v 0.076570 -0.077379 -0.206869
v 0.076570 -0.087168 -0.206869
v 0.320336 -0.087169 -0.062558
v 0.320336 -0.077442 -0.062558
v 0.005711 -0.087168 -0.206869
v 0.005711 -0.077379 -0.206869
v 0.107281 -0.071668 -0.200618
v 0.107281 -0.092880 -0.200618
v 0.317169 -0.071730 -0.093269
v 0.317169 -0.092880 -0.093269
v 0.005711 -0.087168 -0.062559
v 0.320336 -0.087169 -0.005711
v 0.320336 -0.077442 -0.005711
v 0.005711 -0.077379 -0.062559
v 0.076570 -0.087169 -0.005711
v 0.076570 -0.077442 -0.005711
v 0.076570 -0.077379 -0.062559
v 0.076570 -0.087168 -0.062559
v 0.005711 -0.077442 -0.005711
v 0.005711 -0.087169 -0.005711
v 0.836778 -0.071730 -0.093269
v 0.880024 -0.071730 -0.050023
v 0.867358 -0.071730 -0.080603
v 0.880024 -0.092880 -0.050023
v 0.836778 -0.092880 -0.093269
v 0.867358 -0.092880 -0.080603
v 0.107281 -0.092880 -0.819560
v 0.064035 -0.092880 -0.862806
v 0.094614 -0.092880 -0.850140
v 0.064035 -0.071773 -0.862806
v 0.107281 -0.071766 -0.819560
v 0.094614 -0.071771 -0.850140
v -0.076570 -0.077379 -0.206869
v -0.076570 -0.087168 -0.206869
v -0.320336 -0.087169 -0.062558
v -0.320336 -0.077442 -0.062558
v -0.005711 -0.087168 -0.206869
v -0.005711 -0.077379 -0.206869
v -0.107281 -0.071668 -0.200618
v -0.107281 -0.092880 -0.200618
v -0.317169 -0.071730 -0.093269
v -0.317169 -0.092880 -0.093269
v -0.005711 -0.087168 -0.062559
v -0.320336 -0.087169 -0.005711
v -0.320336 -0.077442 -0.005711
v -0.005711 -0.077379 -0.062559
v -0.076570 -0.087169 -0.005711
v -0.076570 -0.077442 -0.005711
v -0.076570 -0.077379 -0.062559
v -0.076570 -0.087168 -0.062559
v -0.005711 -0.077442 -0.005711
v -0.005711 -0.087169 -0.005711
v -0.836778 -0.071730 -0.093269
v -0.880024 -0.071730 -0.050023
v -0.867358 -0.071730 -0.080603
v -0.880024 -0.092880 -0.050023
v -0.836778 -0.092880 -0.093269
v -0.867358 -0.092880 -0.080603
v -0.107281 -0.092880 -0.819560
v -0.064035 -0.092880 -0.862806
v -0.094614 -0.092880 -0.850140
v -0.064035 -0.071773 -0.862806
v -0.107281 -0.071766 -0.819560
v -0.094614 -0.071771 -0.850140
vn -0.1951 -0.0000 0.9808
vn 0.1951 -0.0000 0.9808
vn -0.0000 1.0000 -0.0000
vn -0.9808 -0.0000 0.1951
vn -0.9808 -0.0000 -0.1951
vn -0.0000 -0.0000 1.0000
vn 1.0000 -0.0000 -0.0000
vn 0.9808 -0.0000 0.1951
vn -0.0000 -1.0000 -0.0000
vn -0.0000 1.0000 0.0002
vn -1.0000 -0.0000 -0.0000
vn -0.0000 1.0000 -0.0011
vn -0.0000 -0.0000 -1.0000
vn 0.7071 -0.0000 0.7071
vn 0.7072 -0.0000 0.7070
vn 0.0001 1.0000 -0.0006
vn -0.7072 -0.0000 0.7070
vn -0.7071 -0.0000 0.7071
vn -0.0001 1.0000 -0.0006
vn -0.1951 -0.0000 -0.9808
vn 0.1951 -0.0000 -0.9808
vn 0.9808 -0.0000 -0.1951
vn -0.0000 1.0000 -0.0002
vn -0.0000 1.0000 0.0011
vn 0.7072 -0.0000 -0.7070
vn 0.7071 -0.0000 -0.7071
vn 0.0001 1.0000 0.0006
vn -0.7071 -0.0000 -0.7071
vn -0.7072 -0.0000 -0.7070
vn -0.0001 1.0000 0.0006
vt 0.212743 0.879834
vt 0.223078 0.879834
vt 0.223078 0.886003
vt 0.223078 0.885535
vt 0.223078 0.881211
vt 0.212743 0.881211
vt 0.212743 0.886003
vt 0.223078 0.875667
vt 0.212743 0.875667
vt 0.212743 0.885535
vt 0.223078 0.876074
vt 0.215534 0.876300
vt 0.215534 0.885370
vt 0.215526 0.885453
vt 0.220296 0.885453
vt 0.220287 0.885370
vt 0.220287 0.876300
vt 0.220296 0.876218
vt 0.215526 0.876218
vt 0.212743 0.876074
s 1
usemtl Palette
f 60/1/1 28/1/2 30/2/2 62/2/1
s 0
f 73/3/3 9/3/3 21/3/3 23/4/3 22/5/3 86/5/3 87/4/3 85/3/3
s 1
f 54/5/4 118/5/5 120/6/5 56/6/4
f 10/7/6 25/7/2 21/3/2 9/3/6
f 7/8/7 31/8/8 27/9/8 8/9/7
s 0
f 10/7/9 74/7/9 89/7/9 90/10/9 88/6/9 24/6/9 26/10/9 25/7/9
f 7/8/10 39/8/10 63/8/10 64/11/10 62/2/10 30/2/10 32/11/10 31/8/10
f 12/12/9 3/13/9 18/13/9 15/12/9
f 5/14/11 6/15/11 14/15/11 11/14/11
f 14/16/11 19/17/11 20/12/11 11/13/11
f 17/16/12 16/17/12 19/17/12 14/16/12
f 13/17/13 12/12/13 15/12/13 16/17/13
f 6/15/3 1/18/3 17/18/3 14/15/3
s 1
f 1/18/7 2/19/7 18/19/14 17/18/15
s 0
f 4/16/16 13/17/16 16/17/16 17/16/16
s 1
f 3/13/6 4/16/6 17/16/15 18/13/14
s 0
f 2/19/9 5/14/9 11/14/9 18/19/9
f 15/12/9 18/13/9 11/13/9 20/12/9
f 16/17/13 15/12/13 20/12/13 19/17/13
s 1
f 24/6/8 22/5/8 23/4/14 26/10/14
f 26/10/14 23/4/14 21/3/2 25/7/2
f 30/2/2 28/1/2 29/20/14 32/11/14
f 32/11/14 29/20/14 27/9/8 31/8/8
s 0
f 40/9/9 8/9/9 27/9/9 29/20/9 28/1/9 60/1/9 61/20/9 59/9/9
f 56/6/9 120/6/9 122/10/9 121/7/9 106/7/9 42/7/9 57/7/9 58/10/9
f 105/3/3 117/3/3 119/4/3 118/5/3 54/5/3 55/4/3 53/3/3 41/3/3
s 1
f 42/7/6 41/3/6 53/3/1 57/7/1
f 39/8/11 40/9/11 59/9/4 63/8/4
s 0
f 44/12/9 47/12/9 50/13/9 35/13/9
f 37/14/7 43/14/7 46/15/7 38/15/7
f 46/16/7 43/13/7 52/12/7 51/17/7
f 49/16/12 46/16/12 51/17/12 48/17/12
f 45/17/13 48/17/13 47/12/13 44/12/13
f 38/15/3 46/15/3 49/18/3 33/18/3
s 1
f 33/18/11 49/18/17 50/19/18 34/19/11
s 0
f 36/16/19 49/16/19 48/17/19 45/17/19
s 1
f 35/13/6 50/13/18 49/16/17 36/16/6
s 0
f 34/19/9 50/19/9 43/14/9 37/14/9
f 47/12/9 52/12/9 43/13/9 50/13/9
f 48/17/13 51/17/13 52/12/13 47/12/13
s 1
f 56/6/4 58/10/18 55/4/18 54/5/4
f 58/10/18 57/7/1 53/3/1 55/4/18
f 62/2/1 64/11/18 61/20/18 60/1/1
f 64/11/18 63/8/4 59/9/4 61/20/18
f 124/1/20 126/2/20 94/2/21 92/1/21
s 0
f 8/9/13 40/9/13 39/8/13 7/8/13
s 1
f 74/7/13 73/3/13 85/3/21 89/7/21
f 71/8/7 72/9/7 91/9/22 95/8/22
s 0
f 104/9/9 123/9/9 125/20/9 124/1/9 92/1/9 93/20/9 91/9/9 72/9/9
f 94/2/23 126/2/23 128/11/23 127/8/23 103/8/23 71/8/23 95/8/23 96/11/23
f 76/12/9 79/12/9 82/13/9 67/13/9
f 69/14/11 75/14/11 78/15/11 70/15/11
f 78/16/11 75/13/11 84/12/11 83/17/11
f 81/16/24 78/16/24 83/17/24 80/17/24
f 77/17/6 80/17/6 79/12/6 76/12/6
f 70/15/3 78/15/3 81/18/3 65/18/3
s 1
f 65/18/7 81/18/25 82/19/26 66/19/7
s 0
f 68/16/27 81/16/27 80/17/27 77/17/27
s 1
f 67/13/13 82/13/26 81/16/25 68/16/13
s 0
f 66/19/9 82/19/9 75/14/9 69/14/9
f 79/12/9 84/12/9 75/13/9 82/13/9
f 80/17/6 83/17/6 84/12/6 79/12/6
s 1
f 88/6/22 90/10/26 87/4/26 86/5/22
f 90/10/26 89/7/21 85/3/21 87/4/26
f 94/2/21 96/11/26 93/20/26 92/1/21
f 96/11/26 95/8/22 91/9/22 93/20/26
s 0
f 10/7/11 9/3/11 73/3/11 74/7/11
s 1
f 106/7/13 121/7/20 117/3/20 105/3/13
f 103/8/11 127/8/5 123/9/5 104/9/11
s 0
f 72/9/6 71/8/6 103/8/6 104/9/6
f 42/7/7 106/7/7 105/3/7 41/3/7
f 108/12/9 99/13/9 114/13/9 111/12/9
f 101/14/7 102/15/7 110/15/7 107/14/7
s 1
f 24/6/8 88/6/22 86/5/22 22/5/8
s 0
f 110/16/7 115/17/7 116/12/7 107/13/7
f 113/16/24 112/17/24 115/17/24 110/16/24
f 109/17/6 108/12/6 111/12/6 112/17/6
f 102/15/3 97/18/3 113/18/3 110/15/3
s 1
f 97/18/11 98/19/11 114/19/28 113/18/29
s 0
f 100/16/30 109/17/30 112/17/30 113/16/30
s 1
f 99/13/13 100/16/13 113/16/29 114/13/28
s 0
f 98/19/9 101/14/9 107/14/9 114/19/9
f 111/12/9 114/13/9 107/13/9 116/12/9
f 112/17/6 111/12/6 116/12/6 115/17/6
s 1
f 120/6/5 118/5/5 119/4/28 122/10/28
f 122/10/28 119/4/28 117/3/20 121/7/20
f 126/2/20 124/1/20 125/20/28 128/11/28
f 128/11/28 125/20/28 123/9/5 127/8/5
