# Blender 4.4.1
# www.blender.org
mtllib RFan_Base.mtl
o RFan_Base
v 0.107107 0.051411 0.111677
v 0.107107 -0.024886 0.111677
v 0.020823 -0.001017 0.093631
v 0.089799 -0.001017 0.024655
v 0.069597 -0.001017 0.073428
v 0.070123 -0.083066 0.020741
v 0.016909 -0.083066 0.073955
v 0.054537 -0.083066 0.058369
v 0.020823 -0.083066 0.093631
v 0.069597 -0.083066 0.073428
v 0.089799 -0.083066 0.024655
v 0.016046 -0.131097 0.049675
v 0.037948 -0.131097 0.040521
v 0.047102 -0.131097 0.016513
v -0.107107 0.051411 0.111677
v -0.107107 -0.024886 0.111677
v 0.000000 -0.024886 0.111677
v 0.000000 0.051411 0.111677
v 0.000000 -0.001017 0.093631
v 0.000000 -0.083066 0.093631
v -0.020823 -0.001017 0.093631
v -0.089799 -0.001017 0.024655
v -0.069597 -0.001017 0.073428
v -0.070123 -0.083066 0.020741
v -0.016909 -0.083066 0.073955
v -0.054537 -0.083066 0.058369
v -0.020823 -0.083066 0.093631
v -0.069597 -0.083066 0.073428
v -0.089799 -0.083066 0.024655
v 0.000000 -0.083066 0.073955
v 0.000000 -0.131097 0.049675
v -0.016046 -0.131097 0.049675
v -0.037948 -0.131097 0.040521
v -0.047102 -0.131097 0.016513
v 0.107107 0.051411 -0.111677
v 0.107107 -0.024886 -0.111677
v 0.107107 0.051411 0.000000
v 0.107107 -0.024886 0.000000
v 0.089799 -0.083066 0.000000
v 0.089799 -0.001017 0.000000
v 0.020823 -0.001017 -0.093631
v 0.089799 -0.001017 -0.024655
v 0.069597 -0.001017 -0.073428
v 0.070123 -0.083066 -0.020741
v 0.016909 -0.083066 -0.073955
v 0.054537 -0.083066 -0.058369
v 0.020823 -0.083066 -0.093631
v 0.069597 -0.083066 -0.073428
v 0.089799 -0.083066 -0.024655
v 0.070123 -0.083066 0.000000
v 0.047102 -0.131097 0.000000
v 0.016046 -0.131097 -0.049675
v 0.037948 -0.131097 -0.040521
v 0.047102 -0.131097 -0.016513
v -0.107107 0.051411 -0.111677
v -0.107107 -0.024886 -0.111677
v 0.000000 -0.024886 -0.111677
v 0.000000 0.051411 -0.111677
v -0.107107 0.051411 0.000000
v -0.107107 -0.024886 0.000000
v 0.000000 -0.024886 0.000000
v -0.089799 -0.083066 0.000000
v -0.089799 -0.001017 0.000000
v 0.000000 -0.001017 -0.093631
v 0.000000 -0.083066 -0.093631
v -0.020823 -0.001017 -0.093631
v -0.089799 -0.001017 -0.024655
v -0.069597 -0.001017 -0.073428
v -0.070123 -0.083066 -0.020741
v -0.016909 -0.083066 -0.073955
v -0.054537 -0.083066 -0.058369
v -0.020823 -0.083066 -0.093631
v -0.069597 -0.083066 -0.073428
v -0.089799 -0.083066 -0.024655
v -0.070123 -0.083066 0.000000
v 0.000000 -0.083066 -0.073955
v -0.047102 -0.131097 0.000000
v 0.000000 -0.131097 0.000000
v 0.000000 -0.131097 -0.049675
v -0.016046 -0.131097 -0.049675
v -0.037948 -0.131097 -0.040521
v -0.047102 -0.131097 -0.016513
vn -0.0000 -1.0000 -0.0000
vn 1.0000 -0.0000 -0.0000
vn -0.0000 -0.0000 1.0000
vn 0.8843 -0.4346 0.1705
vn 0.6308 -0.4553 0.6283
vn 0.6370 -0.4553 0.6220
vn 0.8842 -0.4346 0.1712
vn 0.1951 -0.0000 0.9808
vn 0.7071 -0.0000 0.7071
vn 0.9808 -0.0000 0.1951
vn 0.9018 -0.4322 -0.0000
vn 0.1676 -0.4475 0.8784
vn 0.1837 -0.4465 0.8757
vn -0.0000 -0.4511 0.8925
vn -1.0000 -0.0000 -0.0000
vn -0.8843 -0.4346 0.1705
vn -0.8842 -0.4346 0.1712
vn -0.6370 -0.4553 0.6220
vn -0.6308 -0.4553 0.6283
vn -0.1951 -0.0000 0.9808
vn -0.7071 -0.0000 0.7071
vn -0.9808 -0.0000 0.1951
vn -0.9018 -0.4322 -0.0000
vn -0.1837 -0.4465 0.8757
vn -0.1676 -0.4475 0.8784
vn -0.0000 -0.0000 -1.0000
vn 0.8843 -0.4346 -0.1705
vn 0.8842 -0.4346 -0.1712
vn 0.6370 -0.4553 -0.6220
vn 0.6308 -0.4553 -0.6283
vn 0.1951 -0.0000 -0.9808
vn 0.7071 -0.0000 -0.7071
vn 0.9808 -0.0000 -0.1951
vn 0.1837 -0.4465 -0.8757
vn 0.1676 -0.4475 -0.8784
vn -0.0000 -0.4511 -0.8925
vn -0.8843 -0.4346 -0.1705
vn -0.6308 -0.4553 -0.6283
vn -0.6370 -0.4553 -0.6220
vn -0.8842 -0.4346 -0.1712
vn -0.1951 -0.0000 -0.9808
vn -0.7071 -0.0000 -0.7071
vn -0.9808 -0.0000 -0.1951
vn -0.1676 -0.4475 -0.8784
vn -0.1837 -0.4465 -0.8757
vt 0.019018 0.969808
vt 0.023900 0.969808
vt 0.023900 0.974690
vt 0.019018 0.974690
vt 0.033664 0.969808
vt 0.033664 0.974690
vt 0.033664 0.979571
vt 0.023900 0.979571
vt 0.209498 0.869532
vt 0.208601 0.871608
vt 0.209498 0.868989
vt 0.210630 0.877524
vt 0.220965 0.877524
vt 0.220965 0.878722
vt 0.210630 0.878722
vt 0.210630 0.873555
vt 0.220965 0.873555
vt 0.210630 0.869748
vt 0.220965 0.869748
vt 0.210630 0.868387
vt 0.220965 0.868387
vt 0.206435 0.872469
vt 0.209468 0.872440
vt 0.206661 0.873555
vt 0.209498 0.868387
vt 0.205462 0.872469
vt 0.205462 0.873555
vt 0.205462 0.868387
vt 0.206004 0.872469
s 0
usemtl Palette
f 61/1/1 38/2/1 2/3/1 17/4/1
f 38/2/2 37/5/2 1/6/2 2/3/2
f 2/3/3 1/6/3 18/7/3 17/8/3
s 1
f 6/9/4 8/10/5 13/10/6 14/11/7
f 9/12/8 3/13/8 19/14/3 20/15/3
f 3/13/8 9/12/8 10/16/9 5/17/9
f 5/17/9 10/16/9 11/18/10 4/19/10
f 39/20/2 40/21/2 4/19/10 11/18/10
s 0
f 7/22/1 8/10/1 10/23/1 9/24/1
f 8/10/1 6/9/1 11/18/1 10/23/1
f 6/9/1 50/25/1 39/20/1 11/18/1
f 30/26/1 7/22/1 9/24/1 20/27/1
f 78/28/1 51/25/1 14/11/1 13/10/1 12/29/1 31/26/1
s 1
f 50/25/11 6/9/4 14/11/7 51/25/11
f 8/10/5 7/22/12 12/29/13 13/10/6
f 7/22/12 30/26/14 31/26/14 12/29/13
s 0
f 61/1/1 17/4/1 16/3/1 60/2/1
f 60/2/15 16/3/15 15/6/15 59/5/15
f 16/3/3 17/8/3 18/7/3 15/6/3
s 1
f 24/9/16 34/11/17 33/10/18 26/10/19
f 27/12/20 20/15/3 19/14/3 21/13/20
f 21/13/20 23/17/21 28/16/21 27/12/20
f 23/17/21 22/19/22 29/18/22 28/16/21
f 62/20/15 29/18/22 22/19/22 63/21/15
s 0
f 25/22/1 27/24/1 28/23/1 26/10/1
f 26/10/1 28/23/1 29/18/1 24/9/1
f 24/9/1 29/18/1 62/20/1 75/25/1
f 30/26/1 20/27/1 27/24/1 25/22/1
f 78/28/1 31/26/1 32/29/1 33/10/1 34/11/1 77/25/1
s 1
f 75/25/23 77/25/23 34/11/17 24/9/16
f 26/10/19 33/10/18 32/29/24 25/22/25
f 25/22/25 32/29/24 31/26/14 30/26/14
s 0
f 61/1/1 57/4/1 36/3/1 38/2/1
f 38/2/2 36/3/2 35/6/2 37/5/2
f 36/3/26 57/8/26 58/7/26 35/6/26
s 1
f 44/9/27 54/11/28 53/10/29 46/10/30
f 47/12/31 65/15/26 64/14/26 41/13/31
f 41/13/31 43/17/32 48/16/32 47/12/31
f 43/17/32 42/19/33 49/18/33 48/16/32
f 39/20/2 49/18/33 42/19/33 40/21/2
s 0
f 45/22/1 47/24/1 48/23/1 46/10/1
f 46/10/1 48/23/1 49/18/1 44/9/1
f 44/9/1 49/18/1 39/20/1 50/25/1
f 76/26/1 65/27/1 47/24/1 45/22/1
f 78/28/1 79/26/1 52/29/1 53/10/1 54/11/1 51/25/1
s 1
f 50/25/11 51/25/11 54/11/28 44/9/27
f 46/10/30 53/10/29 52/29/34 45/22/35
f 45/22/35 52/29/34 79/26/36 76/26/36
s 0
f 61/1/1 60/2/1 56/3/1 57/4/1
f 60/2/15 59/5/15 55/6/15 56/3/15
f 56/3/26 55/6/26 58/7/26 57/8/26
s 1
f 69/9/37 71/10/38 81/10/39 82/11/40
f 72/12/41 66/13/41 64/14/26 65/15/26
f 66/13/41 72/12/41 73/16/42 68/17/42
f 68/17/42 73/16/42 74/18/43 67/19/43
f 62/20/15 63/21/15 67/19/43 74/18/43
s 0
f 70/22/1 71/10/1 73/23/1 72/24/1
f 71/10/1 69/9/1 74/18/1 73/23/1
f 69/9/1 75/25/1 62/20/1 74/18/1
f 76/26/1 70/22/1 72/24/1 65/27/1
f 78/28/1 77/25/1 82/11/1 81/10/1 80/29/1 79/26/1
s 1
f 75/25/23 69/9/37 82/11/40 77/25/23
f 71/10/38 70/22/44 80/29/45 81/10/39
f 70/22/44 76/26/36 79/26/36 80/29/45
